HIERARCHY
ROOT hip
{
	OFFSET 0.000000 0.000000 0.000000
	CHANNELS 6 Xposition Yposition Zposition Xrotation Zrotation Yrotation 
	JOINT abdomen
	{
		OFFSET 0.000000 3.422050 0.000000
		CHANNELS 3 Xrotation Zrotation Yrotation 
		JOINT chest
		{
			OFFSET 0.000000 8.486693 -0.684411
			CHANNELS 3 Xrotation Zrotation Yrotation 
			JOINT neck
			{
				OFFSET 0.000000 10.266162 -0.273764
				CHANNELS 3 Xrotation Zrotation Yrotation 
				JOINT head
				{
					OFFSET 0.000000 3.148285 0.000000
					CHANNELS 3 Xrotation Zrotation Yrotation 
					End Site
					{
						OFFSET 0.000000 3.148289 0.000000
					}
				}
			}
			JOINT lCollar
			{
				OFFSET 3.422053 6.707223 -0.821293
				CHANNELS 3 Yrotation Zrotation Xrotation 
				JOINT lShldr
				{
					OFFSET 3.285171 0.000000 0.000000
					CHANNELS 3 Zrotation Yrotation Xrotation 
					JOINT lForeArm
					{
						OFFSET 10.129278 0.000000 0.000000
						CHANNELS 3 Yrotation Zrotation Xrotation 
						JOINT lHand
						{
							OFFSET 8.486692 0.000000 0.000000
							CHANNELS 3 Zrotation Yrotation Xrotation 
							End Site
							{
								OFFSET 4.106464 0.000000 0.000000
							}
						}
					}
				}
			}
			JOINT rCollar
			{
				OFFSET -3.558935 6.707223 -0.821293
				CHANNELS 3 Yrotation Zrotation Xrotation 
				JOINT rShldr
				{
					OFFSET -3.148289 0.000000 0.000000
					CHANNELS 3 Zrotation Yrotation Xrotation 
					JOINT rForeArm
					{
						OFFSET -10.266159 0.000000 0.000000
						CHANNELS 3 Yrotation Zrotation Xrotation 
						JOINT rHand
						{
							OFFSET -8.349810 0.000000 0.000000
							CHANNELS 3 Zrotation Yrotation Xrotation 
							End Site
							{
								OFFSET -4.106464 0.000000 0.000000
							}
						}
					}
				}
			}
		}
	}
	JOINT lThigh
	{
		OFFSET 5.338403 -1.642589 1.368821
		CHANNELS 3 Xrotation Zrotation Yrotation 
		JOINT lShin
		{
			OFFSET -2.053232 -20.121670 0.000000
			CHANNELS 3 Xrotation Zrotation Yrotation 
			JOINT lFoot
			{
				OFFSET 0.000000 -19.300380 -1.231939
				CHANNELS 3 Xrotation Yrotation Zrotation 
				End Site
				{
					OFFSET 0.000000 -2.463878 4.653993
				}
			}
		}
	}
	JOINT rThigh
	{
		OFFSET -5.338403 -1.642589 1.368821
		CHANNELS 3 Xrotation Zrotation Yrotation 
		JOINT rShin
		{
			OFFSET 2.053232 -20.121670 0.000000
			CHANNELS 3 Xrotation Zrotation Yrotation 
			JOINT rFoot
			{
				OFFSET 0.000000 -19.300380 -1.231939
				CHANNELS 3 Xrotation Yrotation Zrotation 
				End Site
				{
					OFFSET 0.000000 -2.463878 4.653993
				}
			}
		}
	}
}
MOTION
Frames: 10
Frame Time: 0.142781
0.000000 43.528500 0.000000 0.000000 0.000000 0.000000 0.000000 0.000000 0.000000 0.000000 0.000000 0.000000 0.000000 0.000000 0.000000 0.000000 0.000000 0.000000 0.000000 0.000000 0.000000 0.000000 0.000000 0.000000 0.000000 0.000000 0.000000 0.000000 0.000000 0.000000 0.000000 0.000000 0.000000 0.000000 0.000000 0.000000 0.000000 0.000000 0.000000 0.000000 0.000000 0.000000 0.000000 0.000000 0.000000 0.000000 0.000000 0.000000 0.000000 0.000000 0.000000 0.000000 0.000000 0.000000 0.000000 0.000000 0.000000 0.000000 0.000000 0.000000 
0.000000 3.155243 0.000000 -90.001877 0.000000 0.000000 -0.490208 -1.457083 -0.918847 -0.601400 -0.709265 -0.868844 -0.250188 -0.002374 2.915166 -1.002198 -0.000142 2.582935 -5.050058 -30.183266 -2.781976 -26.234406 -10.015559 2.186337 -52.056248 -66.763870 -39.412888 -8.706102 8.741604 45.211300 -0.714465 -29.374790 -0.387917 13.641537 2.383988 44.460224 50.649086 28.116182 -0.725997 15.827941 -24.840195 -0.418826 -12.008544 19.845432 3.152843 34.416119 -13.676216 2.221708 32.509850 -2.573077 0.952554 0.593226 -10.801770 -0.236994 3.454125 2.341656 0.145850 32.509842 2.568740 -0.954932 
0.000000 3.155243 0.000000 -90.001877 0.000000 0.000000 -0.490208 -1.457083 -0.918847 -0.601400 -0.709265 -0.868844 -0.493070 -0.065546 5.802842 -1.978295 -0.224221 5.137681 -5.050058 -30.183266 -2.781976 -26.234406 -10.015559 2.186337 -52.056248 -66.763870 -39.412888 -8.706102 8.741604 45.211300 -0.714465 -29.374790 -0.387917 13.641537 2.383988 44.460224 50.649086 28.116182 -0.725997 15.827941 -24.840195 -0.418826 -12.008544 19.845432 3.152844 34.416119 -13.676216 2.221708 32.509850 -2.573077 0.952554 0.593226 -10.801770 -0.236994 3.454125 2.341656 0.145850 32.509842 2.568740 -0.954932 
0.000000 3.155243 0.000000 -90.001877 0.000000 0.000000 -0.490208 -1.457083 -0.918847 -0.601400 -0.709265 -0.868844 -0.740281 -0.116663 8.707765 -2.968628 -0.405370 7.709377 -5.050058 -30.183266 -2.781976 -26.234407 -10.015560 2.186337 -52.056248 -66.763870 -39.412888 -8.706102 8.741604 45.211300 -0.714465 -29.374790 -0.387917 13.641539 2.383988 44.460228 50.649086 28.116182 -0.725997 15.827943 -24.840197 -0.418826 -12.008544 19.845432 3.152843 34.416119 -13.676216 2.221708 32.509850 -2.573077 0.952554 0.593226 -10.801770 -0.236994 3.454125 2.341656 0.145850 32.509842 2.568740 -0.954932 
0.000000 3.155243 0.000000 -90.001884 0.000000 0.000000 -0.490208 -1.457083 -0.918847 -0.601400 -0.709265 -0.868844 -0.990917 -0.155334 11.626245 -3.970221 -0.542345 10.294455 -5.050059 -30.183270 -2.781976 -26.234406 -10.015559 2.186337 -52.056248 -66.763870 -39.412888 -8.706102 8.741604 45.211300 -0.714465 -29.374790 -0.387917 13.641537 2.383988 44.460224 50.649086 28.116184 -0.725998 15.827941 -24.840195 -0.418826 -12.008544 19.845432 3.152844 34.416119 -13.676216 2.221708 32.509850 -2.573077 0.952554 0.593226 -10.801770 -0.236994 3.454126 2.341657 0.145850 32.509842 2.568740 -0.954932 
0.000000 3.155243 0.000000 -90.001884 0.000000 0.000000 -0.490208 -1.457083 -0.918847 -0.601400 -0.709265 -0.868844 -1.244031 -0.181257 14.554500 -4.979959 -0.634189 12.889190 -5.050058 -30.183271 -2.781976 -26.234406 -10.015560 2.186337 -52.056252 -66.763878 -39.412891 -8.706102 8.741604 45.211300 -0.714465 -29.374790 -0.387917 13.641537 2.383987 44.460228 50.649086 28.116182 -0.725997 15.827944 -24.840197 -0.418826 -12.008545 19.845434 3.152844 34.416126 -13.676217 2.221707 32.509850 -2.573077 0.952554 0.593226 -10.801770 -0.236994 3.454125 2.341656 0.145850 32.509842 2.568740 -0.954932 
0.000000 3.155243 0.000000 -90.001877 0.000000 0.000000 -0.490209 -1.457083 -0.918847 -0.601400 -0.709265 -0.868844 -1.498642 -0.194229 17.488642 -5.994626 -0.680259 15.489766 -5.050058 -30.183270 -2.781976 -26.234406 -10.015559 2.186337 -52.056248 -66.763870 -39.412888 -8.706102 8.741604 45.211300 -0.714465 -29.374792 -0.387917 13.641538 2.383987 44.460224 50.649090 28.116184 -0.725997 15.827941 -24.840195 -0.418826 -12.008545 19.845432 3.152844 34.416119 -13.676217 2.221708 32.509850 -2.573077 0.952554 0.593226 -10.801770 -0.236994 3.454125 2.341656 0.145850 32.509842 2.568740 -0.954932 
0.000000 3.155243 0.000000 -90.001877 0.000000 0.000000 -0.490208 -1.457083 -0.918847 -0.601400 -0.709265 -0.868844 -1.753753 -0.194146 20.424747 -7.010943 -0.680227 18.092300 -5.050058 -30.183266 -2.781976 -26.234409 -10.015560 2.186337 -52.056252 -66.763870 -39.412891 -8.706104 8.741606 45.211304 -0.714465 -29.374792 -0.387917 13.641539 2.383988 44.460228 50.649090 28.116184 -0.725996 15.827943 -24.840199 -0.418826 -12.008546 19.845434 3.152843 34.416119 -13.676217 2.221707 32.509850 -2.573077 0.952554 0.593226 -10.801771 -0.236994 3.454126 2.341656 0.145850 32.509846 2.568740 -0.954932 
0.000000 3.155243 0.000000 -90.001862 0.000000 0.000000 -0.490208 -1.457083 -0.918847 -0.601400 -0.709265 -0.868844 -2.008357 -0.181009 23.358894 -8.025605 -0.634094 20.692871 -5.050057 -30.183262 -2.781976 -26.234404 -10.015559 2.186337 -52.056248 -66.763870 -39.412888 -8.706102 8.741604 45.211296 -0.714465 -29.374790 -0.387917 13.641536 2.383987 44.460224 50.649086 28.116180 -0.725997 15.827941 -24.840195 -0.418826 -12.008544 19.845432 3.152843 34.416115 -13.676216 2.221708 32.509850 -2.573077 0.952554 0.593226 -10.801770 -0.236994 3.454125 2.341656 0.145850 32.509842 2.568740 -0.954932 
0.000000 3.155243 0.000000 -90.001877 0.000000 0.000000 -0.490208 -1.457083 -0.918847 -0.601400 -0.709265 -0.868844 -2.261453 -0.154921 26.287142 -9.035339 -0.542185 23.287611 -5.050057 -30.183262 -2.781976 -26.234406 -10.015559 2.186337 -52.056244 -66.763870 -39.412884 -8.706102 8.741604 45.211300 -0.714465 -29.374790 -0.387917 13.641535 2.383988 44.460224 50.649086 28.116182 -0.725997 15.827941 -24.840193 -0.418826 -12.008544 19.845432 3.152843 34.416119 -13.676216 2.221708 32.509850 -2.573077 0.952554 0.593226 -10.801770 -0.236994 3.454125 2.341656 0.145850 32.509842 2.568740 -0.954932 
